<svg xmlns="http://www.w3.org/2000/svg" width="50" height="50" viewBox="0 0 50 50">
  <g id="Icon_ion-ios-settings-strong" data-name="Icon ion-ios-settings-strong" transform="translate(-2.25 -5.625)">
    <path id="Path_5" data-name="Path 5" d="M2.25,26.438H33.874a5.029,5.029,0,0,1,4.09-1.687,5.029,5.029,0,0,1,4.09,1.688h10.2v2.25h-10.2a5.029,5.029,0,0,1-4.09,1.688,5.029,5.029,0,0,1-4.09-1.687H2.25" transform="translate(0 25.25)"/>
    <path id="Path_6" data-name="Path 6" d="M2.25,16.875h10.2a5.029,5.029,0,0,1,4.09-1.687,5.029,5.029,0,0,1,4.09,1.688H52.25v2.25H20.626a5.029,5.029,0,0,1-4.09,1.688,5.029,5.029,0,0,1-4.09-1.687H2.25" transform="translate(0 12.625)"/>
    <path id="Path_7" data-name="Path 7" d="M2.25,7.313H33.874a5.029,5.029,0,0,1,4.09-1.687,5.029,5.029,0,0,1,4.09,1.688h10.2v2.25h-10.2a5.029,5.029,0,0,1-4.09,1.688,5.029,5.029,0,0,1-4.09-1.687H2.25"/>
  </g>
</svg>
